<svg width="100" height="40" fill="none" xmlns="http://www.w3.org/2000/svg"><g clip-path="url(#a)"><path d="M92.94.25H7.06a6.8 6.8 0 0 0-6.8 6.8v25.9a6.8 6.8 0 0 0 6.8 6.8h85.88a6.8 6.8 0 0 0 6.8-6.8V7.04a6.8 6.8 0 0 0-6.8-6.8Z" fill="#161616" fill-opacity=".94"/><mask id="b" style="mask-type:luminance" maskUnits="userSpaceOnUse" x="4" y="10" width="21" height="20"><path d="M24.7 10h-20v20h20V10Z" fill="#fff"/></mask><g mask="url(#b)"><path d="M21.75 16.52c-.08.06-2.03 1.14-2.03 3.54a4.16 4.16 0 0 0 2.5 3.7c-.04.05-.36 1.3-1.3 2.63-.74 1.13-1.57 2.28-2.83 2.28-1.2 0-1.62-.76-3-.76-1.49 0-1.9.76-3.04.76-1.26 0-2.15-1.2-2.93-2.33a11.49 11.49 0 0 1-1.93-6c-.02-1.18.2-2.33.78-3.32a4.62 4.62 0 0 1 3.82-2.33c1.21-.04 2.28.83 3.02.83.7 0 2.02-.83 3.52-.83.64 0 2.36.2 3.42 1.83Zm-7.04-2.06c-.22-1.07.38-2.15.93-2.83a3.92 3.92 0 0 1 2.78-1.4 4 4 0 0 1-1.02 2.9c-.63.83-1.7 1.45-2.7 1.33Z" fill="#fff"/></g><path d="M39.5 29.2h1.78L37.5 19.18h-1.66L32.12 29.2h1.77l.76-2.16h4.1l.75 2.16Zm-4.34-3.63 1.53-4.34 1.53 4.34h-3.06Zm10.98-3.35c-.91 0-1.66.32-2.19.93h-.03v-.84h-1.57V32h1.57v-3.63h.03c.5.6 1.24.95 2.17.95 1.91 0 3.34-1.4 3.34-3.51 0-2.1-1.43-3.58-3.32-3.58Zm-.26 5.66c-1.13 0-2.02-.84-2.02-2.08 0-1.22.82-2.15 2-2.15 1.11 0 2 .83 2 2.15 0 1.22-.82 2.08-1.98 2.08Zm8.74-5.66c-.9 0-1.66.32-2.18.93h-.03v-.84h-1.58V32h1.58v-3.63h.02c.5.6 1.24.95 2.18.95 1.9 0 3.34-1.4 3.34-3.51 0-2.1-1.43-3.58-3.33-3.58Zm-.26 5.66c-1.12 0-2.01-.84-2.01-2.08 0-1.22.82-2.15 2-2.15 1.1 0 1.99.83 1.99 2.15 0 1.22-.81 2.08-1.98 2.08Zm11.65 1.43c1.6 0 3.46-.92 3.46-2.99 0-1.94-1.38-2.41-3.1-3.09-1.22-.47-1.9-.72-1.88-1.45.01-.75.63-1.17 1.4-1.17.69 0 1.49.34 2.3 1.02l1.02-1.33a5.28 5.28 0 0 0-3.32-1.24c-1.73 0-3.17 1.23-3.17 2.8 0 1.83 1.51 2.52 3.03 3.05 1.27.45 1.94.73 1.94 1.6 0 .75-.57 1.23-1.67 1.23-.86 0-1.84-.44-2.57-1.32l-1.08 1.32a5.03 5.03 0 0 0 3.64 1.57Zm6.87 0c.9 0 1.33-.18 1.74-.4l-.41-1.36c-.37.19-.75.3-1.02.3-.44 0-.66-.26-.66-.96v-3.22h2.03v-1.35h-2.03v-2.46l-1.58.17v2.3h-.84v1.34h.84v3.36c0 1.54.74 2.28 1.93 2.28Zm5.7 0c2.1 0 3.6-1.44 3.6-3.53 0-2.11-1.5-3.56-3.6-3.56a3.44 3.44 0 0 0-3.63 3.56c0 2.02 1.44 3.53 3.62 3.53Zm0-1.43c-1.2 0-2.01-.93-2.01-2.1 0-1.2.8-2.13 2-2.13 1.14 0 2.02.86 2.02 2.13 0 1.24-.9 2.1-2.01 2.1Zm8.73-5.66c-.84 0-1.6.4-2.15 1.13h-.02V22.3h-1.58v6.9h1.58v-3.28c0-1.11.68-1.97 1.88-1.97.11 0 .3 0 .48.02v-1.76h-.2Zm7.32 3.46c0-2-1.31-3.46-3.35-3.46-1.91 0-3.35 1.43-3.35 3.54a3.39 3.39 0 0 0 3.52 3.55c1.35 0 2.32-.54 2.9-1.3l-1.1-.94c-.35.44-.92.81-1.72.81a1.9 1.9 0 0 1-1.96-1.57h5.02c.02-.12.04-.38.04-.62v-.01Zm-3.26-2.03c.9 0 1.47.55 1.68 1.39H89.6c.22-.9.9-1.39 1.77-1.39ZM36.28 15.3h1.03l-2.2-5.85h-.96l-2.18 5.84H33l.45-1.25h2.38l.45 1.25Zm-2.53-2.12.89-2.54.89 2.54h-1.78Zm6.45-1.9-1.03 2.86h-.01l-1.05-2.86h-.99l1.6 4.01h.88l1.6-4h-1Zm4.32 0v.48h-.02c-.3-.35-.73-.54-1.24-.54-1.1 0-1.94.87-1.94 2.09 0 1.24.84 2.05 1.95 2.05.55 0 .98-.21 1.28-.6h.01v.54h.88v-4.02h-.92Zm-1.1 3.25c-.69 0-1.16-.5-1.16-1.22 0-.77.51-1.25 1.16-1.25.66 0 1.14.54 1.14 1.25 0 .73-.52 1.22-1.15 1.22Zm3.55-3.85c.33 0 .61-.28.61-.61a.62.62 0 0 0-.61-.61.62.62 0 0 0-.63.6c0 .34.28.62.63.62Zm-.47 4.61h.92v-4h-.92v4Zm2.08 0h.92V9.23h-.92v6.06Zm4.97-4v.47h-.02c-.3-.35-.73-.54-1.24-.54-1.1 0-1.94.87-1.94 2.09 0 1.24.83 2.05 1.95 2.05.55 0 .98-.21 1.28-.6v.54h.89v-4.02h-.92Zm-1.1 3.24c-.69 0-1.16-.5-1.16-1.22 0-.77.51-1.25 1.16-1.25.66 0 1.13.54 1.13 1.25 0 .73-.51 1.22-1.14 1.22Zm5.23-3.3c-.53 0-.97.18-1.27.53h-.02V9.23h-.92v6.06h.88v-.53h.02c.29.38.73.6 1.3.6 1.11 0 1.95-.81 1.95-2.05 0-1.22-.84-2.1-1.94-2.1v.01Zm-.16 3.3c-.65 0-1.17-.5-1.17-1.22 0-.71.48-1.26 1.17-1.26.64 0 1.16.49 1.16 1.26 0 .71-.48 1.21-1.16 1.21Zm2.96.76h.92V9.23h-.92v6.06Zm5.69-2.05c0-1.17-.77-2.02-1.95-2.02-1.12 0-1.96.84-1.96 2.07 0 1.25.88 2.07 2.05 2.07.8 0 1.35-.32 1.7-.76l-.65-.55c-.2.26-.53.48-1 .48a1.1 1.1 0 0 1-1.14-.92h2.92c.01-.07.03-.23.03-.37Zm-1.9-1.18c.52 0 .86.32.98.8h-2.02c.13-.52.53-.8 1.03-.8Zm6.6 3.3c1.23 0 2.1-.84 2.1-2.06 0-1.23-.87-2.08-2.1-2.08a2 2 0 0 0-2.11 2.08c0 1.17.84 2.06 2.1 2.06Zm0-.83c-.7 0-1.17-.55-1.17-1.23 0-.7.47-1.24 1.17-1.24.66 0 1.17.5 1.17 1.24 0 .72-.52 1.23-1.17 1.23Zm5.19-3.3c-.52 0-1.01.2-1.35.6h-.01v-.55h-.92v4.01h.92v-2.01c0-.79.41-1.22 1.04-1.22.55 0 .87.26.87 1.11v2.13h.92v-2.37c0-1.2-.6-1.7-1.47-1.7Zm5.68 4.13c.52 0 .78-.11 1.02-.23l-.24-.8c-.22.11-.44.17-.6.17-.25 0-.38-.15-.38-.56v-1.87h1.18v-.79h-1.18V9.85l-.92.1v1.33h-.5v.79h.5v1.96c0 .9.43 1.33 1.12 1.33Zm3.94-4.14a1.8 1.8 0 0 0-1.36.56h-.02V9.23h-.92v6.06h.92v-2.04c0-.79.42-1.2 1.08-1.2.56 0 .88.28.88 1.08v2.17h.92v-2.41c0-1.2-.62-1.67-1.5-1.67Zm6.14 2.02c0-1.17-.77-2.02-1.95-2.02-1.12 0-1.96.84-1.96 2.07 0 1.25.88 2.07 2.06 2.07.78 0 1.35-.32 1.69-.76l-.65-.55c-.2.26-.53.48-1 .48a1.1 1.1 0 0 1-1.14-.92h2.92c.02-.07.03-.23.03-.37Zm-1.9-1.18c.52 0 .86.32.98.8h-2.02c.14-.52.53-.8 1.04-.8Z" fill="#fff"/><path d="M92.94.25H7.06a6.8 6.8 0 0 0-6.8 6.8v25.9a6.8 6.8 0 0 0 6.8 6.8h85.88a6.8 6.8 0 0 0 6.8-6.8V7.04a6.8 6.8 0 0 0-6.8-6.8Z" stroke="#fff" stroke-width=".43"/></g><defs><clipPath id="a"><path fill="#fff" d="M0 0h100v40H0z"/></clipPath></defs></svg>