<svg width="114" height="40" fill="none" xmlns="http://www.w3.org/2000/svg"><g clip-path="url(#a)"><path d="M107.02.25H6.98a6.77 6.77 0 0 0-6.73 6.8v25.9c0 3.75 3.01 6.8 6.73 6.8h100.04a6.77 6.77 0 0 0 6.73-6.8V7.04c0-3.75-3.01-6.8-6.73-6.8Z" fill="#161616" fill-opacity=".94"/><path d="m7.47 10.8 8.57 8.6 2.35-2.37L8 10.96c-.17-.1-.36-.15-.53-.16Zm-.72.4a1 1 0 0 0-.12.49V28.4c0 .14.03.26.08.36l8.76-8.8-8.72-8.76Zm12.35 6.24-2.5 2.52 2.5 2.52 3.07-1.78c.43-.25.5-.58.5-.75-.01-.28-.19-.55-.49-.71-.26-.14-2.2-1.29-3.08-1.8Zm-3.06 3.09L7.4 29.19c.14-.01.3-.04.44-.13l7.18-4.2 3.38-1.96-2.36-2.37ZM37.62 29.68c1.53 0 2.98-.5 3.88-1.25v-4.2h-4.1v1.54h2.43v1.69a3.9 3.9 0 0 1-2.21.66c-1.98 0-3.25-1.53-3.25-3.53 0-2.18 1.4-3.54 3.18-3.54a3.7 3.7 0 0 1 2.69 1.1l1.19-1.04a5.21 5.21 0 0 0-3.87-1.66c-3.05 0-4.94 2.2-4.94 5.15 0 3.17 2.16 5.08 5 5.08Zm8.75.02a3.4 3.4 0 0 0 3.57-3.54c0-2.1-1.48-3.56-3.57-3.56a3.42 3.42 0 0 0-3.58 3.56 3.41 3.41 0 0 0 3.58 3.54Zm0-1.43c-1.17 0-1.98-.93-1.98-2.11 0-1.2.8-2.12 1.99-2.12 1.11 0 1.98.86 1.98 2.12 0 1.24-.88 2.11-1.98 2.11h-.01Zm8.1 1.43a3.4 3.4 0 0 0 3.58-3.54c0-2.1-1.49-3.56-3.57-3.56a3.42 3.42 0 0 0-3.58 3.56 3.41 3.41 0 0 0 3.58 3.54Zm0-1.43c-1.17 0-1.98-.93-1.98-2.11 0-1.2.8-2.12 2-2.12 1.11 0 1.98.86 1.98 2.12 0 1.24-.88 2.11-1.99 2.11Zm9.89-5.56v.72h-.03a3.02 3.02 0 0 0-2.11-.83c-1.9 0-3.25 1.46-3.25 3.47 0 2.05 1.42 3.4 3.33 3.4.85 0 1.55-.3 2.07-.84h.02v.73c0 .92-.69 1.7-2.03 1.7a4.4 4.4 0 0 1-2.3-.69l-.38 1.4a5.5 5.5 0 0 0 2.78.71c2.52 0 3.47-1.51 3.47-3.6V22.7h-1.57Zm-1.85 5.31c-1.1 0-1.94-.76-1.94-2 0-1.16.78-1.98 1.94-1.98 1.09 0 1.92.78 1.92 1.96 0 1.17-.78 2.01-1.92 2.01v.01Zm5.2 1.57h1.56v-10.4H67.7v10.4Zm9.64-3.53c0-2-1.3-3.46-3.3-3.46-1.9 0-3.32 1.44-3.32 3.55 0 2.15 1.5 3.55 3.48 3.55 1.33 0 2.29-.55 2.87-1.3l-1.1-.94c-.34.44-.9.81-1.69.81-1 0-1.74-.6-1.94-1.57h4.96c.02-.13.04-.39.04-.63Zm-3.22-2.02c.89 0 1.45.55 1.66 1.38h-3.42c.23-.9.9-1.38 1.76-1.38Zm8.21 5.55h1.68v-3.57h1.71c2.14 0 3.59-1.04 3.59-3.21 0-1.87-1.02-3.25-3.39-3.25h-3.59V29.6Zm1.68-5.12V21.1h1.67c1.21 0 1.88.64 1.88 1.7 0 .99-.62 1.69-2 1.69h-1.55Zm6.74 5.12h1.56v-10.4h-1.56v10.4Zm8.43-6.88v.82h-.03a2.64 2.64 0 0 0-2.11-.93c-1.87 0-3.29 1.5-3.29 3.58 0 2.13 1.42 3.52 3.3 3.52a2.6 2.6 0 0 0 2.18-1.03h.01v.92h1.5v-6.88h-1.56Zm-1.88 5.56c-1.15 0-1.96-.86-1.96-2.08 0-1.33.87-2.15 1.97-2.15 1.11 0 1.92.93 1.92 2.15 0 1.25-.87 2.08-1.93 2.08Zm9.66-5.56-1.74 4.64h-.02l-1.88-4.64h-1.64l2.77 6.5-1.23 3.17h1.64l3.74-9.67h-1.64ZM35.77 15.35c.89 0 1.74-.29 2.26-.73v-2.45h-2.38v.9h1.4v.98c-.38.26-.82.39-1.28.39-1.16 0-1.9-.9-1.9-2.06 0-1.27.82-2.06 1.86-2.06.65 0 1.17.24 1.57.63l.7-.6a3.04 3.04 0 0 0-2.27-.97c-1.77 0-2.88 1.28-2.88 3 0 1.86 1.26 2.97 2.92 2.97Zm3.37-.06h3.8v-.88h-2.82v-1.57h2.15v-.9h-2.15v-1.6h2.66v-.9h-3.64v5.85Zm5.97 0h.98v-4.95h1.66v-.9h-4.28v.9h1.64v4.95Zm5.5 0h1V9.45h-1v5.84Zm3.47 0h.98v-4.95h1.66v-.9h-4.28v.9h1.64v4.95Zm8.13.07c1.67 0 2.91-1.2 2.91-2.99 0-1.78-1.24-2.99-2.91-2.99-1.74 0-2.93 1.27-2.93 3 0 1.71 1.19 2.98 2.93 2.98Zm0-.93c-1.13 0-1.9-.91-1.9-2.06s.77-2.06 1.9-2.06c1.07 0 1.89.86 1.89 2.06 0 1.2-.82 2.06-1.9 2.06Zm7.72-4.98v4.2h-.02l-2.82-4.2h-.98v5.84h.99v-4.13h.01l2.8 4.13h1V9.45h-.98Z" fill="#fff"/><path d="M107.02.25H6.98a6.77 6.77 0 0 0-6.73 6.8v25.9c0 3.75 3.01 6.8 6.73 6.8h100.04a6.77 6.77 0 0 0 6.73-6.8V7.04c0-3.75-3.01-6.8-6.73-6.8Z" stroke="#fff" stroke-width=".43"/></g><defs><clipPath id="a"><path fill="#fff" d="M0 0h114v40H0z"/></clipPath></defs></svg>