<svg width="122" height="24" fill="none" xmlns="http://www.w3.org/2000/svg"><path d="M23.42 12c0 5.8-4.68 10.5-10.42 10.5S2.58 17.8 2.58 12 7.26 1.5 13 1.5 23.42 6.2 23.42 12Z" stroke="#fff" stroke-width="3"/><path d="M24.1 16.36V7.64l1.35.77c.34.2.55.56.55.95v5.28c0 .4-.2.75-.55.95l-1.35.77ZM1.9 7.64v8.72L.55 15.6a1.1 1.1 0 0 1-.55-.95V9.36c0-.4.2-.75.55-.95l1.35-.77ZM47.13 4.8l-4.34 8.09h-.04L38.4 4.8h-2.84V19h2.8v-8.82h.03l3.46 6.13h1.83l3.47-6.13h.02V19h2.8V4.8h-2.83Zm14.43 9.24c0-2.87-1.92-4.97-4.8-4.97-2.77 0-4.84 2.07-4.84 5.04a4.84 4.84 0 0 0 5.03 5.06 5.2 5.2 0 0 0 4.22-1.85l-1.7-1.58a2.9 2.9 0 0 1-2.33 1.1 2.46 2.46 0 0 1-2.5-1.87h6.85c.05-.18.07-.63.07-.94Zm-4.7-2.67c1.13 0 1.84.68 2.1 1.71h-4.3a2.15 2.15 0 0 1 2.2-1.7Zm18.27-2.3c-1.4 0-2.6.55-3.4 1.58h-.02c-.59-1.08-1.6-1.58-2.9-1.58-1.09 0-2.15.5-2.92 1.46h-.03v-1.3h-2.62V19h2.62v-4.88c0-1.75.89-2.7 2.06-2.7 1.22 0 1.74.98 1.74 2.54v5.05h2.6v-4.9c0-1.74.9-2.69 2-2.69 1.24 0 1.7.98 1.7 2.54v5.05h2.62v-5.68c0-2.98-1.32-4.26-3.44-4.26Zm11.19 0a3.8 3.8 0 0 0-2.95 1.28h-.05V4.28H80.7V19h2.5v-1.18h.05a3.6 3.6 0 0 0 3 1.35c2.7 0 4.67-2 4.67-5.01 0-2.97-1.99-5.08-4.6-5.08v-.01Zm-.56 7.76c-1.44 0-2.57-1.06-2.57-2.66 0-1.57 1.08-2.74 2.58-2.74 1.4 0 2.49 1.07 2.49 2.74 0 1.58-1.03 2.66-2.5 2.66Zm15.99-2.8c0-2.86-1.93-4.96-4.8-4.96-2.77 0-4.84 2.07-4.84 5.04a4.84 4.84 0 0 0 5.03 5.06 5.2 5.2 0 0 0 4.22-1.85l-1.7-1.58a2.9 2.9 0 0 1-2.34 1.1 2.46 2.46 0 0 1-2.49-1.87h6.85c.05-.18.07-.63.07-.94Zm-4.71-2.66c1.13 0 1.84.68 2.1 1.71h-4.3a2.15 2.15 0 0 1 2.2-1.7Zm12-2.3c-1.15 0-2.22.56-2.95 1.6h-.03V9.23h-2.61V19h2.61v-4.52c0-1.46.88-2.55 2.5-2.55l.69.03V9.08l-.2-.01Zm8.33-4.79v6.07h-.05a3.8 3.8 0 0 0-2.95-1.28c-2.61 0-4.6 2.1-4.6 5.08 0 3.01 1.98 5.02 4.68 5.02 1.31 0 2.32-.48 3-1.35h.06V19H120V4.28h-2.63Zm-2.43 12.55c-1.46 0-2.5-1.08-2.5-2.66 0-1.67 1.1-2.74 2.51-2.74 1.5 0 2.57 1.17 2.57 2.74 0 1.6-1.14 2.66-2.58 2.66Z" fill="#fff"/></svg>